{"title":"The Sentinel[x264][AC3(5.1)].mkv","uid":5267896,"size":994440318,"categoryP":"video","categoryS":"movies","magnet":"?xt=urn:btih:2cf4885982a8b0ce74d6816c4d0d8d1dd9632019&amp;dn=The+Sentinel%5Bx264%5D%5BAC3%285.1%29%5D.mkv&amp;tr=udp%3A%2F%2Ftracker.openbittorrent.com%3A80&amp;tr=udp%3A%2F%2Fopen.demonii.com%3A1337&amp;tr=udp%3A%2F%2Ftracker.coppersurfer.tk%3A6969&amp;tr=udp%3A%2F%2Fexodus.desync.com%3A6969","seeders":0,"leechers":1,"uploader":"Zen_Bud","files":-1,"time":1262912220,"description":"General\nComplete name                    : Sentinel.mkv\nFormat                           : Matroska\nFile size                        : 948 MiB\nDuration                         : 1h 48mn\nOverall bit rate                 : 1 228 Kbps\n\n\nVideo\nID                               : 1\nFormat                           : AVC\nDuration                         : 1h 47mn\nBit rate                         : 755 Kbps\nWidth                            : 720 pixels\nHeight                           : 354 pixels\nDisplay aspect ratio             : 2.40:1\nFrame rate                       : 23.976 fps\nResolution                       : 8 bits\nColorimetry                      : 4:2:0\nScan type                        : Progressive\nBits/(Pixel*Frame)               : 0.124\nStream size                      : 583 MiB (61%)\nWriting library                  : x264 core 79\n\n\nAudio\nID                               : 2\nFormat                           : AC-3\nFormat/Info                      : Audio Coding 3\nCodec ID                         : A_AC3\nDuration                         : 1h 48mn\nBit rate mode                    : Constant\nBit rate                         : 448 Kbps\nChannel(s)                       : 6 channels\nChannel positions                : Front: L C R, Surround: L R, LFE\nSampling rate                    : 48.0 KHz\nStream size                      : 346 MiB (36%)\nLanguage                         : English\n\nText #1\nLanguage                         : English\n\nText #2\nLanguage                         : Swedish\n\n\n\n","torrent":{"xt":"urn:btih:2cf4885982a8b0ce74d6816c4d0d8d1dd9632019","amp;dn":"The+Sentinel%5Bx264%5D%5BAC3%285.1%29%5D.mkv","amp;tr":["udp%3A%2F%2Ftracker.openbittorrent.com%3A80","udp%3A%2F%2Fopen.demonii.com%3A1337","udp%3A%2F%2Ftracker.coppersurfer.tk%3A6969","udp%3A%2F%2Fexodus.desync.com%3A6969"],"infoHash":"2cf4885982a8b0ce74d6816c4d0d8d1dd9632019","infoHashBuffer":{"type":"Buffer","data":[44,244,136,89,130,168,176,206,116,214,129,108,77,13,141,29,217,99,32,25]},"announce":[],"urlList":[]}}